<?xml version="1.0" encoding="UTF-8" standalone="no"?>
<svg
   width="16"
   height="16"
   fill="currentColor"
   class="bi bi-check-circle-fill"
   viewBox="0 0 16 16"
   version="1.1"
   id="svg4"
   sodipodi:docname="check-circle-purple.svg"
   inkscape:version="1.2.1 (9c6d41e410, 2022-07-14)"
   xmlns:inkscape="http://www.inkscape.org/namespaces/inkscape"
   xmlns:sodipodi="http://sodipodi.sourceforge.net/DTD/sodipodi-0.dtd"
   xmlns="http://www.w3.org/2000/svg"
   xmlns:svg="http://www.w3.org/2000/svg">
  <defs
     id="defs8" />
  <sodipodi:namedview
     id="namedview6"
     pagecolor="#ffffff"
     bordercolor="#666666"
     borderopacity="1.0"
     inkscape:showpageshadow="2"
     inkscape:pageopacity="0.0"
     inkscape:pagecheckerboard="0"
     inkscape:deskcolor="#d1d1d1"
     showgrid="false"
     inkscape:zoom="33.875"
     inkscape:cx="3.202952"
     inkscape:cy="8"
     inkscape:window-width="1366"
     inkscape:window-height="727"
     inkscape:window-x="0"
     inkscape:window-y="17"
     inkscape:window-maximized="1"
     inkscape:current-layer="svg4" />
  <path
     d="M16 8A8 8 0 1 1 0 8a8 8 0 0 1 16 0zm-3.97-3.03a.75.75 0 0 0-1.08.022L7.477 9.417 5.384 7.323a.75.75 0 0 0-1.06 1.06L6.97 11.03a.75.75 0 0 0 1.079-.02l3.992-4.99a.75.75 0 0 0-.01-1.05z"
     id="path2" />
  <path
     style="fill:#6552ff;stroke-width:0.0295203;fill-opacity:1"
     d="M 7.2619926,15.951254 C 6.6628027,15.895789 5.9895708,15.748814 5.3939599,15.543438 2.7716137,14.639215 0.76369969,12.370525 0.19285036,9.666839 0.07436016,9.1056396 0.02873598,8.6422545 0.02873598,8 c 0,-0.9438985 0.11220533,-1.647208 0.40267426,-2.5239852 C 0.80323655,4.3536611 1.4285693,3.3241824 2.2582317,2.4685381 3.5403649,1.1462533 5.0602973,0.37156283 6.9372694,0.08369167 c 0.4774125,-0.07322075 1.6480487,-0.07322075 2.1254612,0 1.7841724,0.27363851 3.2428454,0.98567913 4.4814854,2.18760473 1.333833,1.2942956 2.152614,2.9353861 2.381597,4.7734558 0.05967,0.4789951 0.05967,1.4315005 0,1.9104956 -0.217546,1.7462582 -0.965077,3.3121582 -2.184116,4.5752032 -1.206946,1.250517 -2.683483,2.036695 -4.3837634,2.334124 -0.6661219,0.116524 -1.4315534,0.148179 -2.095941,0.08668 z m 0.5461255,-4.759822 c 0.081181,-0.03849 0.195677,-0.121387 0.254436,-0.184213 0.2278291,-0.2436 4.0305169,-5.0164583 4.1071879,-5.1550448 0.0659,-0.1191256 0.08118,-0.1839944 0.08118,-0.3447168 0,-0.5893674 -0.587413,-0.946893 -1.112159,-0.6769101 C 11.010995,4.8962849 10.81677,5.1324608 9.2546125,7.1216638 8.296679,8.3414669 7.5025996,9.3495256 7.4899914,9.3617942 7.4773833,9.3740629 6.9725863,8.891257 6.3682202,8.2888918 5.3221299,7.2462651 5.2616747,7.1914249 5.1090332,7.1466568 4.9085514,7.0878577 4.8329317,7.0877736 4.636418,7.1461314 4.2055619,7.2740821 3.9812756,7.8144083 4.1913656,8.2183041 c 0.046152,0.088727 2.8807723,2.9542129 2.9237358,2.9555719 0.00773,2.36e-4 0.067186,0.01959 0.1321311,0.04298 0.1803188,0.06496 0.3903241,0.05544 0.5608856,-0.02543 z"
     id="path234" />
</svg>
